<?xml version="1.0" encoding="iso-8859-1"?>
<!-- Generator: Adobe Illustrator 19.0.0, SVG Export Plug-In . SVG Version: 6.00 Build 0)  -->
<svg xmlns="http://www.w3.org/2000/svg" xmlns:xlink="http://www.w3.org/1999/xlink" version="1.1" id="Capa_1" x="0px" y="0px" viewBox="0 0 418.088 418.088" style="enable-background:new 0 0 418.088 418.088;" xml:space="preserve" width="512px" height="512px">
<path id="XMLID_20_" d="M134.33,150.953H39.432c-3.866,0-7,3.134-7,7v116.373c0,3.866,3.134,7,7,7h94.898c3.866,0,7-3.134,7-7  V157.953C141.33,154.087,138.196,150.953,134.33,150.953z M127.33,267.326H46.432V164.953h80.898V267.326z M161.595,281.326h94.897  c3.866,0,7-3.134,7-7v-40.025c0-3.866-3.134-7-7-7h-94.897c-3.866,0-7,3.134-7,7v40.025  C154.595,278.193,157.729,281.326,161.595,281.326z M168.595,241.301h80.897v26.025h-80.897V241.301z M398.463,25.257H229.477V7.001  c0-3.866-3.134-7-7-7h-26.865c-3.866,0-7,3.134-7,7v18.256H19.626C8.804,25.257,0,34.061,0,44.883v252.558  c0,10.822,8.804,19.627,19.626,19.627h112.069l-28.008,87.02H92.148c-3.866,0-7,3.134-7,7s3.134,7,7,7h66.862c3.866,0,7-3.134,7-7  s-3.134-7-7-7h-9.855l28.009-87.02h63.761l28.009,87.02h-9.854c-3.866,0-7,3.134-7,7s3.134,7,7,7h66.861c3.866,0,7-3.134,7-7  s-3.134-7-7-7h-11.538l-28.008-87.02h112.069c10.822,0,19.625-8.805,19.625-19.627V44.883  C418.088,34.061,409.285,25.257,398.463,25.257z M202.612,14.001h12.865v11.256h-12.865V14.001z M134.448,404.087h-16.053  l28.008-87.02h16.054L134.448,404.087z M299.695,404.087h-16.054l-28.009-87.02h16.054L299.695,404.087z M404.088,297.441  c0,3.103-2.523,5.627-5.625,5.627H277.019c-0.153-0.006-0.307-0.006-0.461,0h-30.3c-0.154-0.006-0.307-0.006-0.461,0h-73.503  c-0.155-0.006-0.308-0.006-0.461,0h-30.301c-0.154-0.006-0.308-0.006-0.46,0H19.626c-3.102,0-5.626-2.524-5.626-5.627V74.378  h390.088V297.441z M404.088,60.378H14V44.883c0-3.103,2.524-5.626,5.626-5.626h378.837c3.102,0,5.625,2.523,5.625,5.626V60.378z   M51.008,130.649c10.823,0,19.628-8.805,19.628-19.628c0-10.822-8.805-19.627-19.628-19.627c-10.822,0-19.627,8.805-19.627,19.627  C31.381,121.844,40.186,130.649,51.008,130.649z M51.008,105.394c3.103,0,5.628,2.524,5.628,5.627c0,3.104-2.525,5.628-5.628,5.628  c-3.103,0-5.627-2.524-5.627-5.628C45.381,107.918,47.905,105.394,51.008,105.394z M161.595,210.985h94.897c3.866,0,7-3.134,7-7  V101.303c0-3.866-3.134-7-7-7h-94.897c-3.866,0-7,3.134-7,7v102.682C154.595,207.851,157.729,210.985,161.595,210.985z   M168.595,108.303h80.897v88.682h-80.897V108.303z M82.287,123.647c0-3.866,3.134-7,7-7h25.053c3.866,0,7,3.134,7,7s-3.134,7-7,7  H89.287C85.421,130.647,82.287,127.513,82.287,123.647z M283.758,281.326h94.898c3.866,0,7-3.134,7-7v-86.523c0-3.866-3.134-7-7-7  h-94.898c-3.866,0-7,3.134-7,7v86.523C276.758,278.193,279.893,281.326,283.758,281.326z M290.758,194.803h80.898v72.523h-80.898  V194.803z M283.758,164.953h94.898c3.866,0,7-3.134,7-7v-56.65c0-3.866-3.134-7-7-7h-94.898c-3.866,0-7,3.134-7,7v56.65  C276.758,161.82,279.893,164.953,283.758,164.953z M290.758,108.303h80.898v42.65h-80.898V108.303z M82.287,101.303  c0-3.866,3.134-7,7-7h43.647c3.866,0,7,3.134,7,7s-3.134,7-7,7H89.287C85.421,108.303,82.287,105.169,82.287,101.303z" fill="#FFFFFF"/>
<g>
</g>
<g>
</g>
<g>
</g>
<g>
</g>
<g>
</g>
<g>
</g>
<g>
</g>
<g>
</g>
<g>
</g>
<g>
</g>
<g>
</g>
<g>
</g>
<g>
</g>
<g>
</g>
<g>
</g>
</svg>
