<?xml version="1.0" encoding="iso-8859-1"?>
<!-- Generator: Adobe Illustrator 16.0.0, SVG Export Plug-In . SVG Version: 6.00 Build 0)  -->
<!DOCTYPE svg PUBLIC "-//W3C//DTD SVG 1.1//EN" "http://www.w3.org/Graphics/SVG/1.1/DTD/svg11.dtd">
<svg xmlns="http://www.w3.org/2000/svg" xmlns:xlink="http://www.w3.org/1999/xlink" version="1.1" id="Capa_1" x="0px" y="0px" width="512px" height="512px" viewBox="0 0 450.384 450.384" style="enable-background:new 0 0 450.384 450.384;" xml:space="preserve">
<g>
	<g id="Layer_8_32_">
		<path d="M180.719,276.324c-22.939-15.059-38.102-40.995-38.102-70.498c0-46.564,37.754-84.313,84.31-84.313    c46.571,0,84.312,37.749,84.312,84.313c0,29.502-15.157,55.439-38.096,70.498c36.284,17.293,61.347,54.288,61.347,97.15H119.367    C119.367,330.625,144.436,293.617,180.719,276.324z M420.799,0v450.384H29.584V0H420.799z M82.028,51.696v336.813h289.815V51.696    H82.028z M41.336,17.667v407.606l25.022-26.227V43.891L41.336,17.667z M387.504,398.782l21.543,22.562V21.596l-21.543,22.569    V398.782z" fill="#FFFFFF"/>
	</g>
</g>
<g>
</g>
<g>
</g>
<g>
</g>
<g>
</g>
<g>
</g>
<g>
</g>
<g>
</g>
<g>
</g>
<g>
</g>
<g>
</g>
<g>
</g>
<g>
</g>
<g>
</g>
<g>
</g>
<g>
</g>
</svg>
