<?xml version="1.0" encoding="iso-8859-1"?>
<!-- Generator: Adobe Illustrator 16.0.0, SVG Export Plug-In . SVG Version: 6.00 Build 0)  -->
<!DOCTYPE svg PUBLIC "-//W3C//DTD SVG 1.1//EN" "http://www.w3.org/Graphics/SVG/1.1/DTD/svg11.dtd">
<svg xmlns="http://www.w3.org/2000/svg" xmlns:xlink="http://www.w3.org/1999/xlink" version="1.1" id="Capa_1" x="0px" y="0px" width="512px" height="512px" viewBox="0 0 458.104 458.104" style="enable-background:new 0 0 458.104 458.104;" xml:space="preserve">
<g>
	<path d="M445.945,126.25h-177.67V53.765c0-21.662-17.558-39.224-39.223-39.224c-21.664,0-39.224,17.562-39.224,39.224v72.493   H12.159C5.447,126.258,0,131.703,0,138.417v292.981c0,6.708,5.453,12.165,12.159,12.165h433.787   c6.709,0,12.159-5.457,12.159-12.165V138.412C458.104,131.697,452.654,126.25,445.945,126.25z M229.053,34.159   c10.829,0,19.611,8.777,19.611,19.606c0,10.831-8.782,19.611-19.611,19.611c-10.831,0-19.611-8.78-19.611-19.611   C209.441,42.936,218.222,34.159,229.053,34.159z M161.387,399.71H43.806v-22.299h117.581V399.71z M161.387,338.303H43.806v-22.299   h117.581V338.303z M201.922,275.119H43.806V252.82h158.116V275.119z M410.208,404.333h-17.133   c1.009-20.838-8.591-42.726-8.591-42.726c-3.25-7.216-23.079-13.467-23.079-13.467c-10.585-3.726-10.659-7.441-10.659-7.441   c-20.796,40.979-36.588,0.12-36.588,0.12c-1.456,5.522-22.851,12.012-22.851,12.012c-6.247,2.407-8.898,6.008-8.898,6.008   c-9.241,13.713-10.319,44.247-10.319,44.247c0,0.472,0.055,0.837,0.088,1.252h-9.445V246.214h147.476V404.333z M426.937,199.093   c0,6.714-5.462,12.167-12.168,12.167H43.817c-6.711,0-12.17-5.453-12.17-12.167v-21.287c0-6.71,5.458-12.152,12.17-12.152h146.012   v22.585h78.446v-22.585h146.493c6.706,0,12.168,5.442,12.168,12.152V199.093z M308.905,319.037   c1.603,13.187,12.947,26.834,23.234,26.834c11.821,0,23.069-14.358,24.815-26.834c0.673-0.482,1.756-1.62,2.167-4.225   c0,0,2.53-9.04-0.836-8.072c1.169-3.479,5.038-17.048-2.451-25.493c0,0-3.51-4.782-12.027-7.332l-3.975-1.368   c-1.576-1.139-4.738-3.823-4.738-6.808c0,0-1.979,0.914-3.142,2.615c0.462-1.39,1.227-2.686,2.451-3.743   c0,0-1.289,0.668-2.484,2.124c-0.919,0.525-3.053,1.975-3.754,4.558l0.033-0.164c0,0-0.431-0.585-1.62-0.761   c-1.168-0.164-3.217,0.614-3.217,0.614s-12.431,4.858-16.021,16.043c0,0-2.151,5.05,0.673,19.907c-3.987-1.893-1.27,7.88-1.27,7.88   C307.154,317.417,308.256,318.554,308.905,319.037z M331.543,267.228c-0.607,0.837-1.127,1.893-1.368,3.167l-0.449-0.158   C330.071,269.143,330.646,268.125,331.543,267.228z" fill="#FFFFFF"/>
</g>
<g>
</g>
<g>
</g>
<g>
</g>
<g>
</g>
<g>
</g>
<g>
</g>
<g>
</g>
<g>
</g>
<g>
</g>
<g>
</g>
<g>
</g>
<g>
</g>
<g>
</g>
<g>
</g>
<g>
</g>
</svg>
