<?xml version="1.0" encoding="iso-8859-1"?>
<!-- Generator: Adobe Illustrator 19.0.0, SVG Export Plug-In . SVG Version: 6.00 Build 0)  -->
<svg xmlns="http://www.w3.org/2000/svg" xmlns:xlink="http://www.w3.org/1999/xlink" version="1.1" id="Layer_1" x="0px" y="0px" viewBox="0 0 512.001 512.001" style="enable-background:new 0 0 512.001 512.001;" xml:space="preserve" width="512px" height="512px">
<g>
	<g>
		<path d="M346.242,60.883c-33.162,0-60.141,26.979-60.141,60.141s26.979,60.141,60.141,60.141s60.141-26.979,60.141-60.141    S379.404,60.883,346.242,60.883z M346.242,161.971c-22.579,0-40.947-18.369-40.947-40.947s18.37-40.947,40.947-40.947    c22.579,0,40.947,18.369,40.947,40.947C387.189,143.602,368.82,161.971,346.242,161.971z" fill="#FFFFFF"/>
	</g>
</g>
<g>
	<g>
		<path d="M487.076,283.691V17.376c0-5.3-4.296-9.597-9.597-9.597H9.597C4.297,7.779,0,12.076,0,17.376v330.745    c0,5.3,4.297,9.597,9.597,9.597H19.68h290.308c1.51,20.335,9.108,40.292,22.823,56.872l-73.248,73.249    c-3.748,3.748-3.748,9.825,0,13.571c1.875,1.873,4.331,2.811,6.787,2.811s4.912-0.937,6.787-2.811l73.248-73.248    c18.632,15.413,41.528,23.133,64.432,23.133c25.911,0,51.823-9.863,71.549-29.589c19.111-19.111,29.636-44.52,29.636-71.549    C512,325.454,503.182,302.117,487.076,283.691z M19.194,334.388V26.973h448.688v239.649    c-27.106-18.531-61.276-22.417-91.346-11.639l-50.739-55.833c-1.82-2.001-4.399-3.143-7.103-3.143s-5.283,1.141-7.103,3.143    l-35.76,39.348l-77.642-85.412c-1.818-2-4.398-3.141-7.102-3.141s-5.282,1.141-7.102,3.143L19.194,334.388z M310.372,338.524    H41.373l149.716-164.713l125.896,138.495C313.588,320.762,311.398,329.587,310.372,338.524z M288.803,252.766l29.893-32.892    l39.737,43.726c-6.827,4.131-13.276,9.121-19.165,15.01c-4.86,4.86-9.115,10.099-12.777,15.616L288.803,252.766z M468.792,408.134    c-15.985,15.986-36.977,23.978-57.976,23.976c-20.993-0.001-41.994-7.995-57.976-23.976c-31.967-31.968-31.967-83.984,0-115.952    c15.983-15.983,36.979-23.976,57.976-23.976s41.991,7.992,57.976,23.976c15.487,15.486,24.016,36.076,24.016,57.976    C492.806,372.058,484.277,392.648,468.792,408.134z" fill="#FFFFFF"/>
	</g>
</g>
<g>
	<g>
		<path d="M459.745,301.231c-13.07-13.069-30.446-20.266-48.928-20.266s-35.858,7.198-48.928,20.266    c-13.069,13.069-20.266,30.446-20.266,48.928s7.198,35.858,20.266,48.927c13.07,13.07,30.447,20.268,48.928,20.268    s35.858-7.198,48.928-20.268C486.723,372.108,486.723,328.209,459.745,301.231z M360.815,350.159    c0-9.873,2.85-19.304,8.147-27.369l38.451,43.279h-44.011C361.71,361.007,360.815,355.653,360.815,350.159z M446.17,385.515    c-9.442,9.444-21.999,14.645-35.354,14.645s-25.912-5.202-35.355-14.645c-0.082-0.082-0.159-0.169-0.241-0.252h71.189    C446.327,385.346,446.252,385.432,446.17,385.515z M458.199,366.067h-25.112L382.4,309.016c8.291-5.752,18.111-8.859,28.416-8.859    c13.357,0.001,25.912,5.202,35.355,14.645C460.014,328.645,464.016,348.651,458.199,366.067z" fill="#FFFFFF"/>
	</g>
</g>
<g>
</g>
<g>
</g>
<g>
</g>
<g>
</g>
<g>
</g>
<g>
</g>
<g>
</g>
<g>
</g>
<g>
</g>
<g>
</g>
<g>
</g>
<g>
</g>
<g>
</g>
<g>
</g>
<g>
</g>
</svg>
