<?xml version="1.0" encoding="iso-8859-1"?>
<!-- Generator: Adobe Illustrator 17.1.0, SVG Export Plug-In . SVG Version: 6.00 Build 0)  -->
<!DOCTYPE svg PUBLIC "-//W3C//DTD SVG 1.1//EN" "http://www.w3.org/Graphics/SVG/1.1/DTD/svg11.dtd">
<svg xmlns="http://www.w3.org/2000/svg" xmlns:xlink="http://www.w3.org/1999/xlink" version="1.1" id="Capa_1" x="0px" y="0px" viewBox="0 0 434.342 434.342" style="enable-background:new 0 0 434.342 434.342;" xml:space="preserve" width="512px" height="512px">
<path d="M129.163,149.854c10.719,6.369,22.762,9.552,34.781,9.552c12.016,0,24.049-3.185,34.767-9.551  c25.498-15.148,39.333-45.114,37.946-82.213c-0.759-20.309-8.742-35.872-20.382-46.939c-12.247-11.78-29.173-18.977-48.268-20.4  c-1.169-0.087-4.795-0.455-7.747-0.229c-32.702,2.463-67.374,24.167-69.032,67.518c-0.001,0.025-0.058,0.03-0.058,0.055  c0,0.009,0,0.018,0,0.027C90.171,104.756,103.674,134.71,129.163,149.854z M163.974,19.857c10.266,0.417,21.948,3.361,31.718,9.856  c4.837,3.235,9.119,7.283,12.534,12.171c-28.047,12.627-62.894,20.81-96.693,22.693C114.575,35.028,139.572,20.84,163.974,19.857z   M215.819,60.394c0.462,2.54,0.754,5.204,0.858,7.995c1.105,29.554-9.161,52.98-28.168,64.271c-15.136,8.992-33.94,8.992-49.076,0  c-15.381-9.138-25.038-26.224-27.576-48.072C148.015,82.656,185.468,73.927,215.819,60.394z M207.225,211.68l-18.309,22.919  c-3.447,4.315-9.74,5.018-14.055,1.571c-4.315-3.447-5.019-9.74-1.571-14.055l14.955-18.72c-15-4.276-32.005-4.54-48.052-0.102  l15.039,18.821c3.447,4.314,2.745,10.607-1.57,14.055c-4.314,3.447-10.607,2.745-14.055-1.57l-18.499-23.151  c-13.95,8.557-23.139,21.404-26.024,36.977L73.706,363.836l99.711-0.002c5.522,0,10,4.477,10,10s-4.477,10-10,10l-111.734,0.002  c-2.971,0-5.788-1.321-7.688-3.605s-2.686-5.295-2.145-8.216l23.566-127.233c5.444-29.388,26.799-51.448,58.59-60.525  c17.191-4.908,36.374-5.442,54.014-1.504c18.941,4.229,35.075,13.178,46.657,25.878c3.722,4.081,3.431,10.405-0.65,14.127  c-4.081,3.722-10.405,3.431-14.127-0.65C216.267,218.125,211.988,214.636,207.225,211.68z M274.194,408.346c0,5.523-4.477,10-10,10  h-44.082c-5.523,0-9.94-4.626-9.94-10.149V261.98c0-5.523,4.417-9.634,9.94-9.634h112.673c5.523,0,10.387,4.111,10.387,9.634v12.586  c0,5.523-4.477,10-10,10s-10-4.477-10-10v-2.22h-93v126h34.022C269.717,398.346,274.194,402.823,274.194,408.346z M332.785,359.442  c28.433,0,49.874-12.895,49.874-29.995c0-17.102-21.441-29.998-49.874-29.998c-28.43,0-49.87,12.896-49.87,29.998  C282.915,346.547,304.354,359.442,332.785,359.442z M309.076,324.245c6.076-3.048,14.718-4.796,23.709-4.796  c8.992,0,17.635,1.748,23.712,4.796c5.09,2.553,6.162,4.854,6.162,5.202s-1.071,2.647-6.161,5.2  c-6.078,3.047-14.721,4.795-23.713,4.795c-8.991,0-17.633-1.748-23.709-4.795c-5.089-2.553-6.16-4.853-6.16-5.2  S303.986,326.798,309.076,324.245z M376.517,375.413c2.394,4.978,0.299,10.953-4.679,13.346  c-10.909,5.245-24.778,8.134-39.054,8.134c-14.274,0-28.142-2.889-39.05-8.134c-4.978-2.394-7.072-8.369-4.679-13.346  c2.393-4.978,8.369-7.072,13.346-4.679c8.259,3.971,19.049,6.158,30.383,6.158c11.336,0,22.128-2.187,30.387-6.158  C368.148,368.34,374.125,370.436,376.517,375.413z M376.517,412.864c2.394,4.978,0.299,10.953-4.679,13.346  c-10.907,5.245-24.777,8.133-39.054,8.133c-14.275,0-28.143-2.888-39.05-8.133c-4.978-2.394-7.072-8.369-4.679-13.346  c2.393-4.978,8.369-7.072,13.346-4.679c8.257,3.971,19.047,6.157,30.383,6.157c11.338,0,22.129-2.187,30.387-6.157  C368.148,405.792,374.125,407.886,376.517,412.864z" fill="#FFFFFF"/>
<g>
</g>
<g>
</g>
<g>
</g>
<g>
</g>
<g>
</g>
<g>
</g>
<g>
</g>
<g>
</g>
<g>
</g>
<g>
</g>
<g>
</g>
<g>
</g>
<g>
</g>
<g>
</g>
<g>
</g>
</svg>
