<?xml version="1.0" encoding="iso-8859-1"?>
<!-- Generator: Adobe Illustrator 17.1.0, SVG Export Plug-In . SVG Version: 6.00 Build 0)  -->
<!DOCTYPE svg PUBLIC "-//W3C//DTD SVG 1.1//EN" "http://www.w3.org/Graphics/SVG/1.1/DTD/svg11.dtd">
<svg xmlns="http://www.w3.org/2000/svg" xmlns:xlink="http://www.w3.org/1999/xlink" version="1.1" id="Capa_1" x="0px" y="0px" viewBox="0 0 445.929 445.929" style="enable-background:new 0 0 445.929 445.929;" xml:space="preserve" width="512px" height="512px">
<path d="M148.639,157.793c4.8,1.027,9.582,1.525,14.303,1.524c28.105-0.002,53.821-17.665,65.44-46.407  c2.07-5.12-0.402-10.949-5.522-13.019c-5.123-2.071-10.948,0.403-13.02,5.523c-11.571,28.624-36.973,37.113-57.017,32.821  c-18.259-3.907-37.15-19.236-41.728-50.441c25.87-2.037,48.442-8.729,66.021-19.591c21.146,7.802,44.516,12.715,68.268,14.207  c2.785,0.17,5.51-0.819,7.527-2.743c2.018-1.923,3.141-4.601,3.099-7.388l-0.004-0.357c-0.083-5.471-4.543-9.948-9.996-9.948  c-0.051,0-0.103,0-0.154,0c-0.491,0-7.672-0.248-10.78-0.608c-4.307-37.768-34.796-57.518-64.791-61.106  c-2.371-0.284-11.547-0.341-13.433-0.148c-32.03,3.282-65.114,25.012-66.699,67.402C88.023,124.453,120.327,151.736,148.639,157.793  z M162.844,19.738c22.558,0.909,45.623,13.101,51.383,38.278c-21.294-4.493-41.491-11.935-58.086-21.605  c-4.774-2.782-10.896-1.165-13.675,3.605c-2.781,4.772-1.167,10.895,3.604,13.675c2.46,1.433,4.978,2.82,7.548,4.158  c-12.454,5.252-27.126,8.624-43.461,9.96C111.59,35.98,137.537,20.758,162.844,19.738z M329.865,284.107  c-3.929-3.882-3.967-10.213-0.085-14.142l13.354-13.515c3.882-3.929,10.215-3.966,14.142-0.084  c3.929,3.882,3.967,10.213,0.085,14.142l-13.354,13.515c-1.956,1.979-4.534,2.971-7.113,2.971  C334.354,286.993,331.814,286.033,329.865,284.107z M359.956,305.436l18.456-4.506c5.367-1.308,10.777,1.978,12.087,7.343  c1.31,5.365-1.978,10.776-7.343,12.086l-18.456,4.506c-0.797,0.194-1.595,0.288-2.38,0.288c-4.502,0-8.592-3.062-9.707-7.631  C351.304,312.158,354.591,306.746,359.956,305.436z M395.147,365.672c-0.948,4.755-5.125,8.046-9.796,8.046  c-0.648,0-1.307-0.063-1.967-0.195l-18.636-3.717c-5.416-1.08-8.931-6.346-7.851-11.763c1.08-5.416,6.337-8.936,11.763-7.851  l18.636,3.717C392.712,354.989,396.227,360.255,395.147,365.672z M366.949,416.116c-1.959,2.668-4.994,4.082-8.068,4.082  c-2.055,0-4.127-0.63-5.91-1.94l-15.315-11.245c-4.452-3.269-5.411-9.527-2.143-13.979c3.268-4.453,9.526-5.411,13.979-2.142  l15.315,11.245C369.259,405.405,370.218,411.664,366.949,416.116z M172.878,373.974c0,5.523-4.478,10-10,10H60.587  c-2.972,0-5.789-1.453-7.688-3.739c-1.9-2.285-2.686-5.428-2.144-8.349l23.602-127.238c8.222-44.407,50.081-64.451,88.043-64.65  c0.067-0.002,0.136-0.024,0.208-0.024c0.003,0,0.005,0,0.007,0h0.179c0.02,0,0.039,0,0.059,0c37.989,0,79.915,20.223,88.146,64.674  c1.005,5.431-2.582,10.679-8.013,11.684c-5.427,1.005-10.647-2.565-11.653-7.997c-6.146-33.196-38.834-48.125-68.571-48.252  c-29.782,0.07-62.58,15.09-68.738,48.349L72.613,363.974h90.266C168.401,363.974,172.878,368.451,172.878,373.974z M264.795,278.068  c-36.186,0-65.573,29.439-65.573,65.625c0,24.51,13.724,46.55,34.724,57.885v22.962c0,5.523,4.375,10.436,9.897,10.436h5.794  c-0.054,0-0.081,0.63-0.081,1.065c0.001,5.523,4.479,9.891,10.001,9.89l10.476-0.056c5.523-0.001,10-4.288,9.999-9.811  c0-0.433-0.027-1.088-0.081-1.088h5.794c5.522,0,10.201-4.913,10.201-10.436v-22.962c21-11.334,34.573-33.375,34.573-57.885  C330.52,307.507,300.981,278.068,264.795,278.068z M282.077,385.969c-3.768,1.533-6.131,5.195-6.131,9.263v19.743h-22v-19.743  c0-4.067-2.515-7.729-6.283-9.263c-17.277-7.03-28.467-23.625-28.467-42.277c0-25.157,20.454-45.625,45.611-45.625  s45.668,20.467,45.668,45.625C310.476,362.344,299.356,378.939,282.077,385.969z" fill="#FFFFFF"/>
<g>
</g>
<g>
</g>
<g>
</g>
<g>
</g>
<g>
</g>
<g>
</g>
<g>
</g>
<g>
</g>
<g>
</g>
<g>
</g>
<g>
</g>
<g>
</g>
<g>
</g>
<g>
</g>
<g>
</g>
</svg>
