<?xml version="1.0" encoding="iso-8859-1"?>
<!-- Generator: Adobe Illustrator 17.1.0, SVG Export Plug-In . SVG Version: 6.00 Build 0)  -->
<!DOCTYPE svg PUBLIC "-//W3C//DTD SVG 1.1//EN" "http://www.w3.org/Graphics/SVG/1.1/DTD/svg11.dtd">
<svg xmlns="http://www.w3.org/2000/svg" xmlns:xlink="http://www.w3.org/1999/xlink" version="1.1" id="Capa_1" x="0px" y="0px" viewBox="0 0 439.635 439.635" style="enable-background:new 0 0 439.635 439.635;" xml:space="preserve" width="512px" height="512px">
<path d="M134.818,324.635c5.523,0,10-4.477,10-10v-43c0-5.523-4.477-10-10-10h-16.472l0.002-9.191  c0.001-5.523-4.475-9.809-9.998-9.809c-0.001,0-0.001,0-0.002,0c-5.521,0-9.999,4.253-10,9.774l-0.002,9.226H81.818  c-5.523,0-10,4.477-10,10v43c0,5.523,4.477,10,10,10H134.818z M91.818,281.635h16.523h0.002h16.474v23h-33V281.635z   M207.876,373.697c0,5.522-4.478,10-10,10l-110.807-0.002c-0.073,0.001-0.146,0.002-0.219,0.002c-0.284,0-0.569-0.012-0.857-0.037  c-5.338-0.454-9.382-5.036-9.154-10.389c0.027-0.627,0.11-1.239,0.247-1.83l3.332-18.785c0.965-5.438,6.158-9.066,11.593-8.1  c5.438,0.964,9.064,6.155,8.1,11.593l-1.338,7.545l99.105,0.002C203.399,363.697,207.876,368.174,207.876,373.697z M365.114,328.365  l-52.091-55.569c-1.891-2.017-4.531-3.161-7.296-3.161h-13.909h-44c-5.522,0-10,4.477-10,10v150c0,5.523,4.478,10,10,10h110  c5.522,0,10-4.477,10-10v-85v-9.431C367.818,332.664,366.851,330.219,365.114,328.365z M343.578,334.635h-41.76v-44.548  l23.72,25.303L343.578,334.635z M257.818,419.635v-130h24v55c0,5.523,4.478,10,10,10h56v65H257.818z M188.642,159.405  c18.697,0,36.254-7.537,49.437-21.222c11.371-11.804,24.635-33.626,23.254-70.552c-1.611-43.063-35.728-64.799-68.223-67.538  c-1.376-0.116-7.411-0.125-8.713-0.018c-10.677,0.872-21.536,3.799-31.369,8.858c-1.735,0.892-6.389,3.605-6.954,4.065  c-16.738,11.019-29.166,29.06-30.122,54.634c-1.382,36.926,11.882,58.748,23.253,70.552  C152.388,151.868,169.945,159.405,188.642,159.405z M135.939,68.378c0.48-12.856,4.947-23.02,11.753-30.664  c10.122,20.84,31.028,34.722,57.595,37.361c0.336,0.033,0.669,0.049,1,0.049c5.078,0,9.426-3.853,9.939-9.012  c0.546-5.496-3.467-10.394-8.963-10.939c-16.545-1.643-35.583-10.326-43.035-29.55c7.602-3.534,16.04-5.437,24.413-5.775  c25.428,1.024,51.502,16.389,52.705,48.531c0.886,23.668-5.226,43.008-17.672,55.929c-9.378,9.736-21.819,15.098-35.032,15.098  s-25.654-5.362-35.032-15.098C141.163,111.387,135.053,92.047,135.939,68.378z M117.809,224.26  c4.182,3.607,10.497,3.141,14.104-1.041c5.654-6.555,13.102-11.879,21.655-15.759l25.774,65.198c1.509,3.816,5.196,6.324,9.3,6.324  c4.104,0,7.791-2.507,9.3-6.323l25.865-65.422c13.468,6.003,23.803,15.522,29.571,27.639c1.713,3.6,5.299,5.705,9.036,5.705  c1.44,0,2.904-0.313,4.291-0.973c4.986-2.374,7.105-8.34,4.731-13.327c-11.654-24.483-36.331-40.946-67.704-45.167  c-34.216-4.604-67.539,6.525-86.963,29.044C113.162,214.338,113.627,220.652,117.809,224.26z M201.065,200.933  c1.184,0.159,2.352,0.346,3.51,0.548l-15.933,40.301l-15.905-40.233C181.812,199.906,191.435,199.637,201.065,200.933z" fill="#FFFFFF"/>
<g>
</g>
<g>
</g>
<g>
</g>
<g>
</g>
<g>
</g>
<g>
</g>
<g>
</g>
<g>
</g>
<g>
</g>
<g>
</g>
<g>
</g>
<g>
</g>
<g>
</g>
<g>
</g>
<g>
</g>
</svg>
