<?xml version="1.0" encoding="iso-8859-1"?>
<!-- Generator: Adobe Illustrator 17.1.0, SVG Export Plug-In . SVG Version: 6.00 Build 0)  -->
<!DOCTYPE svg PUBLIC "-//W3C//DTD SVG 1.1//EN" "http://www.w3.org/Graphics/SVG/1.1/DTD/svg11.dtd">
<svg xmlns="http://www.w3.org/2000/svg" xmlns:xlink="http://www.w3.org/1999/xlink" version="1.1" id="Capa_1" x="0px" y="0px" viewBox="0 0 417.699 417.699" style="enable-background:new 0 0 417.699 417.699;" xml:space="preserve" width="512px" height="512px">
<path d="M310.475,82.607c-3.691-23.096-14.751-42.805-32.468-57.538c-18.337-15.248-42.77-24.149-68.819-25.063  c-0.234-0.009-0.461-0.009-0.696,0c-26.049,0.914-50.491,9.815-68.828,25.063c-17.718,14.733-28.753,34.439-32.444,57.538  c-9.664,0.339-17.372,8.306-17.372,18.05v26.704c0,9.959,8.009,18.184,17.968,18.184h8.062c5.522,0,9.971-4.6,9.971-10.123V96.44  c2-50.704,43.059-74.898,83.002-76.433c39.946,1.535,80.998,25.725,82.998,76.435v29.436l-11.802,0.549  c1.317-7.852,1.827-16.198,1.5-24.942c-1.677-44.887-38.678-66.604-72.343-67.786c-0.232-0.009-0.471-0.009-0.703,0  c-33.664,1.182-70.662,22.898-72.344,67.785c-1.388,37.1,12.439,67.066,37.937,82.214c10.719,6.368,22.736,9.552,34.754,9.552  s24.035-3.184,34.754-9.552c13.972-8.301,24.44-20.991,30.821-36.927l27.627-1.225h7.828c9.959,0,17.972-8.225,17.972-18.184  v-26.704C327.849,90.913,320.139,82.947,310.475,82.607z M259.468,127.385l-36.506,1.7c-5.518,0.257-9.781,4.938-9.524,10.455  s4.901,9.784,10.455,9.524l27.789-1.294c-4.621,7.897-10.773,14.266-18.296,18.734c-15.135,8.992-33.941,8.992-49.076,0  c-19.007-11.292-29.273-34.717-28.167-64.271c1.204-32.143,27.279-47.508,52.707-48.533c25.429,1.025,51.503,16.39,52.703,48.533  C261.89,111.241,261.17,119.683,259.468,127.385z M297.405,278.623c-8.271-44.662-50.436-64.653-88.555-64.654  c-0.002,0,0.001,0-0.001,0c-38.118,0-80.286,19.994-88.558,64.653L96.725,405.856c-0.541,2.921,0.245,5.866,2.145,8.15  c1.9,2.284,4.718,3.539,7.688,3.539h147.539c5.522,0,10-4.477,10-10s-4.478-10-10-10H118.581l21.377-115.346  c3.056-16.502,12.642-28.305,25.163-36.213c4.284,14.83,21.338,24.559,43.722,24.559c0.003,0,0.003,0,0.006,0  c22.385,0,39.442-9.696,43.729-24.525c12.521,7.907,22.105,19.821,25.161,36.323l23.568,127.194  c0.893,4.815,5.095,8.161,9.821,8.161c0.604,0,1.218-0.065,1.833-0.179c5.431-1.006,9.018-6.228,8.012-11.659L297.405,278.623z   M233.41,240.302c-1.465,5.657-12.252,10.243-24.562,10.243c-0.001,0-0.004,0-0.005,0c-12.306,0-23.092-4.587-24.555-10.244  l-0.662-2.636c8.208-2.438,16.835-3.657,25.224-3.657s17.014,1.238,25.222,3.677L233.41,240.302z" fill="#FFFFFF"/>
<g>
</g>
<g>
</g>
<g>
</g>
<g>
</g>
<g>
</g>
<g>
</g>
<g>
</g>
<g>
</g>
<g>
</g>
<g>
</g>
<g>
</g>
<g>
</g>
<g>
</g>
<g>
</g>
<g>
</g>
</svg>
