<?xml version="1.0" encoding="iso-8859-1"?>
<!-- Generator: Adobe Illustrator 17.1.0, SVG Export Plug-In . SVG Version: 6.00 Build 0)  -->
<!DOCTYPE svg PUBLIC "-//W3C//DTD SVG 1.1//EN" "http://www.w3.org/Graphics/SVG/1.1/DTD/svg11.dtd">
<svg xmlns="http://www.w3.org/2000/svg" xmlns:xlink="http://www.w3.org/1999/xlink" version="1.1" id="Capa_1" x="0px" y="0px" viewBox="0 0 418.968 418.968" style="enable-background:new 0 0 418.968 418.968;" xml:space="preserve" width="512px" height="512px">
<path d="M338.696,316.968h-1.212V287.84c0-25.92-21.079-47.008-46.999-47.008c-25.922,0-47.001,21.088-47.001,47.008v29.128h-1.188  c-5.522,0-10,4.478-10,10c0,5.523,4.478,10,10,10h1.626c2.682,19,17.562,34.893,36.562,39.044v22.956h-9.449  c-5.522,0-9.999,4.478-9.999,10.001c0,5.522,4.478,9.999,10,9.999h19.325c0.046,0,0.092,0,0.138,0s0.093,0,0.139,0h19.324  c5.522,0,9.999-4.478,9.999-10.001c0-5.522-4.478-9.999-10-9.999h-9.477v-22.956c19-4.151,33.907-20.044,36.588-39.044h1.624  c5.523,0,10-4.478,10-10S344.218,316.968,338.696,316.968z M290.499,357.572c-12.688,0-23.36-9.604-26.243-20.604h52.484  C313.856,347.968,303.185,357.572,290.499,357.572z M317.484,316.968h-54V287.84c0-14.893,12.108-27.008,27.001-27.008  c14.893,0,26.999,12.115,26.999,27.008V316.968z M86.442,159.968c0.031,0,0.063,0,0.095,0c0,0,11.5-0.425,18.907-0.456  c5.522-0.023,9.98-4.793,9.957-10.315c-0.023-5.509-4.496-10.229-9.999-10.229c-0.015,0-0.029,0-0.044,0  c-1.62,0-3.097,0.234-4.47,0.242l13.358-35.715c5.722,20.339,17.384,36.564,34.005,46.438c21.438,12.736,48.072,12.762,69.509,0.027  c16.619-9.874,28.28-26.029,34.002-46.365l13.357,35.608c-1.374-0.008-2.85-0.235-4.471-0.235c-0.015,0-0.029,0-0.044,0  c-5.502,0-9.976,4.669-9.999,10.177c-0.023,5.522,4.435,10.129,9.957,10.153c7.405,0.031,18.908,0.67,18.908,0.67  c0.032,0,0.063,0,0.095,0c3.258,0,6.314-1.797,8.187-4.467c1.892-2.696,2.334-6.255,1.184-9.341l-31.827-85.396  c0,0-8.153-21.523-10.215-25.136c-13.247-23.208-39.26-34.759-63.539-35.612c-0.232-0.008-0.467-0.021-0.701-0.013  c-23.428,0.823-48.472,11.589-62.101,33.193c-2.679,4.247-11.901,28.178-11.901,28.178l-31.58,84.684  c-1.15,3.086-0.708,6.748,1.184,9.444C80.127,158.173,83.184,159.968,86.442,159.968z M183.003,19.99  c15.955,0.644,32.165,6.933,42.325,19.469c-12.325,4.938-26.976,7.813-42.325,8.227c-15.348-0.413-29.996-3.287-42.322-8.227  C150.841,26.923,167.05,20.634,183.003,19.99z M130.299,68.523c0.147-3.947,0.671-7.642,1.521-11.087  c14.928,6.2,32.598,9.789,50.932,10.25c0.168,0.004,0.334,0.004,0.502,0c18.336-0.461,36.009-4.051,50.935-10.251  c0.851,3.446,1.374,7.14,1.521,11.087c1.106,29.554-9.16,52.979-28.166,64.271c-15.134,8.991-33.94,8.991-49.078,0  C139.46,121.501,129.194,98.075,130.299,68.523z M230.549,223.097c-11.905-14.489-31.495-24.129-52.428-24.129h-0.031  c-26.714,1-58.188,16.724-64.299,49.708L92.305,363.969l117.25-0.002c5.522,0,10,4.477,10,10c0,5.522-4.477,10.001-10,10.001  l-129.283,0.004c-2.973,0-5.791-1.319-7.691-3.605c-1.899-2.286-2.684-5.292-2.14-8.214l23.687-127.219  c3.631-19.595,14.229-36.304,30.651-48.37c13.527-9.939,30.394-16.018,47.948-17.438c1.619-0.131,9.719-0.096,11.634,0.078  c24.5,2.217,47.225,13.531,61.641,31.075c3.506,4.268,2.889,10.568-1.378,14.075C240.356,227.861,234.056,227.364,230.549,223.097z   M188.484,307.353v2.945c0,5.522-4.478,10-10,10s-10-4.478-10-10v-2.945c0-5.522,4.478-10,10-10S188.484,301.83,188.484,307.353z   M188.484,251.632c0,5.522-4.478,10-10,10s-10-4.478-10-10v-2.945c0-5.522,4.478-10,10-10s10,4.478,10,10V251.632z" fill="#FFFFFF"/>
<g>
</g>
<g>
</g>
<g>
</g>
<g>
</g>
<g>
</g>
<g>
</g>
<g>
</g>
<g>
</g>
<g>
</g>
<g>
</g>
<g>
</g>
<g>
</g>
<g>
</g>
<g>
</g>
<g>
</g>
</svg>
