<?xml version="1.0" encoding="iso-8859-1"?>
<!-- Generator: Adobe Illustrator 17.1.0, SVG Export Plug-In . SVG Version: 6.00 Build 0)  -->
<!DOCTYPE svg PUBLIC "-//W3C//DTD SVG 1.1//EN" "http://www.w3.org/Graphics/SVG/1.1/DTD/svg11.dtd">
<svg xmlns="http://www.w3.org/2000/svg" xmlns:xlink="http://www.w3.org/1999/xlink" version="1.1" id="Capa_1" x="0px" y="0px" viewBox="0 0 420.869 420.869" style="enable-background:new 0 0 420.869 420.869;" xml:space="preserve" width="512px" height="512px">
<path d="M137.722,149.822c10.718,6.368,22.736,9.552,34.753,9.552c12.017,0,24.035-3.184,34.753-9.552  c25.498-15.148,39.325-45.114,37.937-82.213c-0.958-25.594-13.399-43.656-30.157-54.673c-0.568-0.457-4.972-3.02-6.573-3.854  c-8.336-4.34-17.425-7.139-26.522-8.446c-6.462-1.015-14.201-0.57-16.417-0.317c-31.717,3.622-64.142,25.335-65.711,67.29  C98.396,104.708,112.224,134.673,137.722,149.822z M119.771,68.356c1.202-32.142,27.276-47.507,52.703-48.532  c8.374,0.337,16.819,2.231,24.422,5.766c-6.19,15.954-21.062,26.726-41.069,29.333c-5.477,0.714-9.338,5.732-8.624,11.208  c0.713,5.477,5.734,9.336,11.208,8.624c25.264-3.292,45.205-17.041,55.005-37.089c6.814,7.646,11.282,17.825,11.763,30.69  c1.106,29.554-9.16,52.98-28.166,64.271c-15.135,8.992-33.94,8.992-49.076,0C128.931,121.336,118.665,97.91,119.771,68.356z   M343.958,284.39c-25.199-29.736-69.889-33.428-99.623-8.231c-14.407,12.207-23.197,29.292-24.751,48.109  c-1.277,15.454,2.452,30.555,10.587,43.438l-41.936,35.534c-4.213,3.57-4.735,9.881-1.165,14.094  c1.978,2.334,4.797,3.536,7.634,3.536c2.284,0,4.581-0.779,6.46-2.371l41.937-35.535c11.373,10.137,25.658,16.293,41.11,17.569  c18.813,1.554,37.112-4.311,51.517-16.517C365.465,358.815,369.156,314.124,343.958,284.39z M322.8,368.757  c-10.329,8.751-23.446,12.958-36.94,11.843c-13.493-1.115-25.744-7.417-34.496-17.747c-8.755-10.328-12.962-23.446-11.847-36.939  s7.418-25.744,17.749-34.497c9.508-8.057,21.145-11.993,32.727-11.993c14.391,0,28.696,6.082,38.708,17.896c0,0,0,0,0,0  C346.769,318.641,344.121,350.688,322.8,368.757z M103.584,248.424L82.206,363.87h73.829c5.523,0,10,4.477,10,10  c0,5.523-4.477,10-10,10H70.183c-2.971,0-5.788-1.356-7.688-3.64c-1.9-2.284-2.686-5.33-2.145-8.251l23.568-127.233  c3.458-18.667,13.441-34.607,28.871-46.097c13.682-10.188,30.914-16.454,49.832-18.122c19.628-1.732,39.536,1.791,56.058,9.918  c18.641,9.168,32.061,23.517,38.807,41.494c1.94,5.171-0.678,10.936-5.849,12.876c-5.17,1.939-10.935-0.678-12.876-5.849  c-11.25-29.977-46.442-40.978-74.384-38.516C138.864,202.7,109.495,216.51,103.584,248.424z M316.37,309.124  c5.318,6.277,7.875,14.249,7.197,22.448c-0.678,8.199-4.508,15.644-10.785,20.962c-1.879,1.592-4.175,2.37-6.459,2.37  c-2.838,0-5.657-1.201-7.635-3.536c-3.57-4.214-3.048-10.524,1.166-14.094c2.201-1.865,3.543-4.475,3.781-7.35  c0.237-2.875-0.659-5.67-2.523-7.87c-3.571-4.214-3.05-10.524,1.164-14.094C306.489,304.39,312.799,304.911,316.37,309.124z   M203.732,266.958l-19.506,0.001c-5.523,0-10-4.477-10-9.999c0-5.523,4.477-10,10-10.001l19.506-0.001c5.523,0,10,4.477,10,10  C213.732,262.48,209.255,266.958,203.732,266.958z" fill="#FFFFFF"/>
<g>
</g>
<g>
</g>
<g>
</g>
<g>
</g>
<g>
</g>
<g>
</g>
<g>
</g>
<g>
</g>
<g>
</g>
<g>
</g>
<g>
</g>
<g>
</g>
<g>
</g>
<g>
</g>
<g>
</g>
</svg>
